<svg width="256" height="256" viewBox="0 0 67.733 67.733" xmlns:xlink="http://www.w3.org/1999/xlink" xmlns="http://www.w3.org/2000/svg"><defs><linearGradient id="h"><stop offset="0" stop-color="#deddda"/><stop offset="1" stop-color="#9a9996"/></linearGradient><linearGradient id="g"><stop offset="0" stop-color="#99c1f1"/><stop offset="1" stop-color="#99c1f1" stop-opacity="0"/></linearGradient><linearGradient id="e"><stop offset="0" stop-color="#fff"/><stop offset="1" stop-color="#fff" stop-opacity="0"/></linearGradient><linearGradient id="d"><stop offset="0" stop-color="#fff"/><stop offset="1" stop-color="#fff" stop-opacity="0"/></linearGradient><linearGradient id="c"><stop offset="0" stop-color="#c64600"/><stop offset="1" stop-color="#f9f06b" stop-opacity="0"/></linearGradient><linearGradient id="a"><stop offset="0" stop-color="#e5a50a"/><stop offset="1" stop-color="#f5c211"/></linearGradient><linearGradient xlink:href="#a" id="n" x1="-95.697" y1="35.594" x2="-121.262" y2="35.594" gradientUnits="userSpaceOnUse"/><linearGradient xlink:href="#c" id="o" x1="-106.396" y1="-2.775" x2="-112.184" y2="39.537" gradientUnits="userSpaceOnUse"/><linearGradient xlink:href="#d" id="q" x1="-119.415" y1="79.846" x2="-123.678" y2="143.318" gradientUnits="userSpaceOnUse" gradientTransform="translate(.543 -2.015)"/><linearGradient xlink:href="#e" id="s" x1="-117.05" y1="46.556" x2="-120.064" y2="14.076" gradientUnits="userSpaceOnUse"/><linearGradient xlink:href="#g" id="y" x1="-117.631" y1="56.319" x2="-99.592" y2="55.843" gradientUnits="userSpaceOnUse"/><filter id="p" x="-.139" y="-.103" width="1.277" height="1.205" color-interpolation-filters="sRGB"><feGaussianBlur stdDeviation="3.083"/></filter><filter id="r" x="-.339" y="-.076" width="1.679" height="1.152" color-interpolation-filters="sRGB"><feGaussianBlur stdDeviation="2.253"/></filter><filter id="t" x="-.424" y="-.108" width="1.847" height="1.216" color-interpolation-filters="sRGB"><feGaussianBlur stdDeviation="1.212"/></filter><filter id="u" x="-.206" y="-.068" width="1.412" height="1.137" color-interpolation-filters="sRGB"><feGaussianBlur stdDeviation="4.214"/></filter><filter id="x" x="-.069" y="-.393" width="1.137" height="1.787" color-interpolation-filters="sRGB"><feGaussianBlur stdDeviation=".818"/></filter><filter id="z" x="-.125" y="-.472" width="1.251" height="1.944" color-interpolation-filters="sRGB"><feGaussianBlur stdDeviation=".836"/></filter><filter id="v" x="-.067" y="-.149" width="1.135" height="1.299" color-interpolation-filters="sRGB"><feGaussianBlur stdDeviation=".767"/></filter><filter id="l" x="-.109" y="-.107" width="1.218" height="1.215" color-interpolation-filters="sRGB"><feGaussianBlur stdDeviation="4.68"/></filter><radialGradient xlink:href="#h" id="i" cx="71.347" cy="36.941" fx="71.347" fy="36.941" r="67.733" gradientUnits="userSpaceOnUse" gradientTransform="matrix(0 2.09717 -2.23077 0 87.891 -144.69)"/><radialGradient xlink:href="#h" id="j" gradientUnits="userSpaceOnUse" gradientTransform="matrix(0 1.60471 -1.70694 0 -52.31 -230.276)" cx="71.347" cy="36.941" fx="71.347" fy="36.941" r="67.733"/><radialGradient xlink:href="#h" id="k" gradientUnits="userSpaceOnUse" gradientTransform="matrix(0 1.45188 -1.54438 0 81.689 -79.329)" cx="71.347" cy="36.941" fx="71.347" fy="36.941" r="67.733"/><clipPath clipPathUnits="userSpaceOnUse" id="m"><use xlink:href="#b" width="100%" height="100%"/></clipPath><clipPath clipPathUnits="userSpaceOnUse" id="w"><use xlink:href="#f" width="100%" height="100%"/></clipPath></defs><g transform="scale(.5)" stroke-width="2"><rect style="font-variation-settings:normal;-inkscape-stroke:none" width="135.467" height="135.467" ry="22.103" fill="url(#i)" paint-order="fill markers stroke"/><rect style="font-variation-settings:normal;-inkscape-stroke:none" width="103.657" height="103.657" x="-119.562" y="-119.562" ry="16.913" transform="scale(-1)" fill="url(#j)" paint-order="fill markers stroke"/><rect style="font-variation-settings:normal;-inkscape-stroke:none" width="93.785" height="93.785" x="20.841" y="20.841" ry="15.302" fill="url(#k)" paint-order="fill markers stroke"/><path style="font-variation-settings:normal;-inkscape-stroke:none" d="M106.432 19.436c-.493-.087-1.818 1.092-3.182 2.537-2.985 3.163-7.572 8.093-14.194 18.46-1.73 2.117-3.188 2.056-4.652 4.258C56.597 58.408 30.4 86.23 24.777 91.367c0 0-4.162 4.103-4.028 5.67.178 2.07-.082 2.26.968 4.197.382.705 2.535-.411 2.478.49-.03.476-.685 1.289-.605 1.725.31 1.7 2.298 3.632 3.44 4.678.38.349 1.438-.106 1.783.23.416.406-.425 1.25-.299 1.756.088.351.626.745.822 1.04 1.288 1.936 3.376 4.14 5.327 5.305.637.38 1.791-.042 2.36.326.252.163.639 1.94.943 2.34.981 1.289 3.674.522 4.4 1.516 1.084 1.482 3.98 4.08 6.532 3.376 2.182-.603 5.767-4.415 8.693-7.383 27.304-27.69 42.28-56.761 42.28-56.761 1.996-1.45 2.004-2.924 4.46-5.054 5.146-4.464 11.768-9.065 17.858-16.557.42-.49.791-.952 1.032-1.31.956-1.426.64-1.822.348-2.36-.291-.539-1.025.323-.622-.55.403-.873.393-1.296-.357-2.84-.749-1.544-2.084-2.943-2.76-3.236-.674-.292-1.089.435-1.364-.065-.276-.5.523-1.012-.164-1.556-3.19-2.713-7.354-6.126-8.86-6.27-1.504-.144-1.503.603-2.036.261-.399-.256.03-.72-.974-.899z" fill="#5e5c64" paint-order="fill markers stroke" filter="url(#l)"/><g clip-path="url(#m)" transform="matrix(.6301 .61644 -.61655 .62986 193.363 74.55)" stroke-width="2.269"><path style="font-variation-settings:normal;-inkscape-stroke:none" d="M-122.7 24.182c-.469.32-.608 2.327-.567 4.581.091 4.934.283 12.572 3.142 26.232.278 3.091-.953 4.199-.392 7.145-11.658 33.188-10.817 76.538-11.299 85.163 0 0-.118 6.631 1.234 7.795 1.787 1.538 1.726 1.898 4.115 2.635.87.269 1.729-2.343 2.399-1.567.353.408.467 1.588.877 1.878 1.6 1.134 4.745 1.122 6.501 1.065.585-.019 1.083-1.227 1.629-1.229.659 0 .646 1.351 1.15 1.662.35.215 1.099.107 1.492.19 2.581.55 6.023.681 8.528.076.818-.197 1.419-1.455 2.173-1.607.333-.068 2.056 1.066 2.62 1.149 1.819.267 3.393-2.492 4.771-2.262 2.055.342 6.466.152 7.975-2.444 1.29-2.22 1.17-8.156 1.188-12.885.16-44.12-10.767-79.578-10.767-79.578.468-2.76-.696-3.961-.395-7.638.63-7.703 2.347-16.688 1.338-27.596-.048-.731-.114-1.4-.203-1.882-.356-1.915-.927-1.985-1.59-2.19-.664-.205-.574 1.076-.94.048-.367-1.028-.71-1.363-2.543-2.02-1.833-.658-4.026-.733-4.805-.435-.78.298-.538 1.217-1.159 1.03-.62-.187-.379-1.236-1.367-1.131-4.74.33-10.824.866-12.158 1.943-1.334 1.078-.74 1.682-1.443 1.828-.527.108-.55-.608-1.504.044z" fill="url(#n)" stroke-linejoin="round" paint-order="fill markers stroke" id="b" stroke-width="2.269"/><path style="font-variation-settings:normal;mix-blend-mode:multiply;-inkscape-stroke:none" d="M-113.11 19.009c-.396.143-.785.292-1.167.446-.242 7.535-.575 26.71 1.952 34.96-.317-4.797-1.368-25.39-.784-35.406zm-5.424 2.511c-.314.184-.619.365-.838.514-.288 7.045-.7 25.286 2.302 33.146.366-.695.72-.75.72-.75s-3.7-12.681-2.184-32.91z" opacity=".25" fill="#e5a50a" paint-order="fill markers stroke"/><path style="font-variation-settings:normal;mix-blend-mode:multiply;-inkscape-stroke:none" d="M-103.708 17.657c-.597-.004-1.087.055-1.38.167-.78.297-.538 1.217-1.159 1.03-.62-.187-.379-1.236-1.367-1.132-4.74.33-10.805 3.51-12.139 4.588-1.034.836-.912 1.385-1.131 1.659-.404 7.224-.72 22.051 2.622 31.514 2.447-1.02 15.794-1.918 21.07-.095.825-10.813 1.396-27.023.577-35.1-.06-.02-.122-.038-.185-.057-.663-.205-.574 1.076-.94.048s-.71-1.362-2.543-2.02a10.892 10.892 0 00-3.425-.602z" opacity=".25" fill="#e5a50a" paint-order="fill markers stroke"/><path style="font-variation-settings:normal;mix-blend-mode:multiply;-inkscape-stroke:none" d="M-107.443 17.716c-.04-.002-.085.002-.13.005.598 6.414 1.93 22.61 1.593 36.425.085.083.167.147.246.2.342.005.679.016 1.017.026a.744.744 0 00.115-.102s1.554-23.497-.17-36.53c-.12.023-.229.05-.316.084-.78.297-.538 1.217-1.159 1.03-.582-.176-.406-1.108-1.196-1.138zm9.037 1.468c.276 8.071.913 29.425.148 35.78.344.413.908.1.908.1s1.374-22.803.571-34.826l-.02-.007c-.664-.205-.575 1.076-.941.048-.173-.484-.346-.812-.666-1.095z" opacity=".25" fill="#d89c09" paint-order="fill markers stroke"/><path style="font-variation-settings:normal;mix-blend-mode:multiply;-inkscape-stroke:none" d="M-106.694 15.971s2.618 25.516 1.29 38.376c-1.373-.325-1.074-.326-1.074-.326l-2.359-39.251zM-97.356 16.29s1.309 25.617-.677 38.392c-1.354-.395-1.056-.38-1.056-.38l-.345-39.321zM-100.61 15.982s1.307 25.617-.678 38.391c-1.355-.394-1.056-.38-1.056-.38l-.345-39.32z" opacity=".25" fill="#d89c09" paint-order="fill markers stroke"/><path style="font-variation-settings:normal;mix-blend-mode:multiply;-inkscape-stroke:none" d="M-98.679 16.11s1.308 25.618-.677 38.392c-1.354-.395-1.056-.38-1.056-.38l-.345-39.321zM-113.27 16.921s-1.027 25.63 1.099 38.382c1.35-.41 1.051-.393 1.051-.393l-.087-39.322z" opacity=".25" fill="#d89c09" paint-order="fill markers stroke"/><path style="font-variation-settings:normal;mix-blend-mode:multiply;-inkscape-stroke:none" d="M-115.03 17.384s-1.027 25.63 1.098 38.381c1.35-.41 1.052-.392 1.052-.392l-.087-39.322z" opacity=".25" fill="#d89c09" paint-order="fill markers stroke"/><path style="font-variation-settings:normal;mix-blend-mode:multiply;-inkscape-stroke:none" d="M-116.747 18.181s-1.027 25.63 1.1 38.381c1.35-.41 1.05-.392 1.05-.392l-.086-39.322zM-111.554 16.947s-1.027 25.63 1.099 38.381c1.35-.41 1.052-.392 1.052-.392l-.088-39.322z" opacity=".25" fill="#d89c09" paint-order="fill markers stroke"/><path style="font-variation-settings:normal;mix-blend-mode:multiply;-inkscape-stroke:none" d="M-118.55 18.859s.307 25.648 3.093 38.272c1.327-.479 1.03-.447 1.03-.447l-2.132-39.264zM-110.127 17.984s-1.456 25.608.456 38.394c1.356-.387 1.058-.375 1.058-.375l.571-39.317zM-117.817 59.924s-7.12 26.413-9.179 47.375c-2.059 20.963-.775 51.714-.775 51.714l2.337.035s-4.905-60.445 10.451-98.979c.255-1.369-2.834-.145-2.834-.145z" opacity=".25" fill="#d89c09" paint-order="fill markers stroke"/><path style="font-variation-settings:normal;mix-blend-mode:multiply;-inkscape-stroke:none" d="M-119.101 60.284s-7.12 26.413-9.179 47.375c-2.06 20.963-.775 51.714-.775 51.714l2.336.035s-4.905-60.445 10.452-98.979c.255-1.369-2.834-.145-2.834-.145z" opacity=".25" fill="#d89c09" paint-order="fill markers stroke"/><path style="font-variation-settings:normal;mix-blend-mode:multiply;-inkscape-stroke:none" d="M-117.64 60.284s-7.119 26.413-9.178 47.375c-2.06 20.963-.775 51.714-.775 51.714l2.336.035s-4.905-60.445 10.452-98.979c.254-1.369-2.835-.145-2.835-.145z" opacity=".25" fill="#d89c09" paint-order="fill markers stroke"/><path style="font-variation-settings:normal;mix-blend-mode:multiply;-inkscape-stroke:none" d="M-115.352 60.593s-5 26.412-6.445 47.375c-1.446 20.962-.544 51.713-.544 51.713l1.64.036s-3.444-60.445 7.34-98.98c.178-1.369-1.99-.144-1.99-.144z" opacity=".25" fill="#d89c09" paint-order="fill markers stroke"/><path style="font-variation-settings:normal;mix-blend-mode:multiply;-inkscape-stroke:none" d="M-116.46 61.107s-4.998 26.413-6.444 47.375c-1.446 20.962-.545 51.713-.545 51.713l1.64.036s-3.443-60.445 7.34-98.98c.179-1.368-1.99-.144-1.99-.144z" opacity=".25" fill="#d89c09" paint-order="fill markers stroke"/><path style="font-variation-settings:normal;mix-blend-mode:multiply;-inkscape-stroke:none" d="M-115.175 61.158s-4.999 26.413-6.445 47.375c-1.446 20.963-.544 51.714-.544 51.714l1.64.035s-3.444-60.445 7.34-98.979c.178-1.369-1.99-.145-1.99-.145zM-99.272 60.088s5 26.413 6.445 47.375c1.447 20.963.545 51.714.545 51.714l-1.64.035s3.443-60.445-7.34-98.98c-.179-1.368 1.99-.144 1.99-.144z" opacity=".25" fill="#d89c09" paint-order="fill markers stroke"/><path style="font-variation-settings:normal;mix-blend-mode:multiply;-inkscape-stroke:none" d="M-100.301 60.243s4.999 26.412 6.445 47.375c1.446 20.962.544 51.713.544 51.713l-1.64.035s3.444-60.444-7.34-98.979c-.179-1.369 1.99-.144 1.99-.144z" opacity=".25" fill="#d89c09" paint-order="fill markers stroke"/><path style="font-variation-settings:normal;mix-blend-mode:multiply;-inkscape-stroke:none" d="M-96.404 60.127s4.999 26.413 6.445 47.375c1.446 20.962.544 51.713.544 51.713l-1.64.036s3.444-60.445-7.34-98.98c-.178-1.368 1.99-.144 1.99-.144z" opacity=".25" fill="#d89c09" paint-order="fill markers stroke"/><path style="font-variation-settings:normal;mix-blend-mode:multiply;-inkscape-stroke:none" d="M-101.21 61.168s5 26.413 6.446 47.375c1.446 20.963.544 51.714.544 51.714l-1.64.035s3.444-60.445-7.34-98.98c-.179-1.368 1.99-.144 1.99-.144z" opacity=".25" fill="#d89c09" paint-order="fill markers stroke"/><path style="font-variation-settings:normal;mix-blend-mode:multiply;-inkscape-stroke:none" d="M-100.977 60.602s5 26.413 6.445 47.376c1.446 20.962.545 51.713.545 51.713l-1.64.035s3.443-60.444-7.34-98.979c-.179-1.369 1.99-.144 1.99-.144z" opacity=".5" fill="#d89c09" paint-order="fill markers stroke"/><path style="font-variation-settings:normal;mix-blend-mode:multiply;-inkscape-stroke:none" d="M-98.639 60.95s5.354 26.344 7.081 47.285c1.728 20.941 1.24 51.701 1.24 51.701l-1.64.058s2.631-60.486-8.67-98.872c-.196-1.366 1.989-.171 1.989-.171z" opacity=".5" fill="#d89c09" paint-order="fill markers stroke"/><path style="font-variation-settings:normal;mix-blend-mode:multiply;-inkscape-stroke:none" d="M-97 61.106s5.744 26.261 7.782 47.174c2.038 20.914 2.005 51.678 2.005 51.678l-1.638.082s1.734-60.518-10.134-98.733c-.218-1.363 1.985-.2 1.985-.2zM-103.153 59.32s4.165 26.557 4.95 47.554c.785 20.998-1.085 51.705-1.085 51.705l-1.64-.016s5.346-60.306-4.219-99.161c-.135-1.374 1.994-.082 1.994-.082z" opacity=".5" fill="#d89c09" paint-order="fill markers stroke"/><path style="font-variation-settings:normal;mix-blend-mode:multiply;-inkscape-stroke:none" d="M-103.339 59.545s4.978 26.417 6.408 47.38c1.429 20.964.503 51.714.503 51.714l-1.64.035s3.492-60.442-7.261-98.985c-.178-1.37 1.99-.144 1.99-.144z" opacity=".5" fill="#d89c09" paint-order="fill markers stroke"/><path style="font-variation-settings:normal;mix-blend-mode:multiply;-inkscape-stroke:none" d="M-109.757 59.188s-2.524 100.853-1.195 102.283c1.328 1.43 2.89.543 2.89.543l.021-102.594z" opacity=".3" fill="#d89c09" paint-order="fill markers stroke"/><path style="font-variation-settings:normal;mix-blend-mode:multiply;-inkscape-stroke:none" d="M-108.218 58.983s-2.524 100.853-1.195 102.283c1.328 1.43 2.89.543 2.89.543l.021-102.595z" opacity=".3" fill="#d89c09" paint-order="fill markers stroke"/><path style="font-variation-settings:normal;mix-blend-mode:multiply;-inkscape-stroke:none" d="M-111.218 59.137s-2.525 100.853-1.196 102.283c1.329 1.43 2.89.543 2.89.543l.022-102.595z" opacity=".3" fill="#d89c09" paint-order="fill markers stroke"/><path style="font-variation-settings:normal;mix-blend-mode:multiply;-inkscape-stroke:none" d="M-113.1 59.188s-2.525 100.853-1.196 102.283c1.329 1.43 2.89.543 2.89.543l.022-102.594z" opacity=".3" fill="#d89c09" paint-order="fill markers stroke"/><path style="font-variation-settings:normal;mix-blend-mode:multiply;-inkscape-stroke:none" d="M-110.487 59.314s-2.525 100.853-1.196 102.283c1.329 1.43 2.89.543 2.89.543l.022-102.595zM-106.278 58.03s4.64 83.506 1.982 105.908c1.373-.421 2.148-1.764 2.148-1.764s3.776-78.891-2.746-102.184c-.343-2.783-1.384-1.96-1.384-1.96z" opacity=".3" fill="#d89c09" paint-order="fill markers stroke"/><path style="font-variation-settings:normal;mix-blend-mode:multiply;-inkscape-stroke:none" d="M-104.473 58.03s4.64 83.506 1.982 105.908c1.373-.421 2.148-1.764 2.148-1.764s3.776-78.891-2.746-102.184c-.343-2.783-1.384-1.96-1.384-1.96z" opacity=".3" fill="#d89c09" paint-order="fill markers stroke"/><path style="font-variation-settings:normal;mix-blend-mode:multiply;-inkscape-stroke:none" d="M-107.994 58.03s4.64 83.506 1.982 105.908c1.373-.421 2.148-1.764 2.148-1.764s3.776-78.891-2.746-102.184c-.343-2.783-1.384-1.96-1.384-1.96zM-102.757 58.03s4.64 83.506 1.982 105.908c1.373-.421 2.148-1.764 2.148-1.764s3.776-78.891-2.746-102.184c-.343-2.783-1.384-1.96-1.384-1.96z" opacity=".3" fill="#d89c09" paint-order="fill markers stroke"/><path style="font-variation-settings:normal;mix-blend-mode:multiply;-inkscape-stroke:none" d="M-109.71 58.133s4.64 83.506 1.982 105.908c1.373-.421 2.148-1.764 2.148-1.764s3.775-78.891-2.746-102.184c-.343-2.783-1.384-1.96-1.384-1.96zM-99.756 57.262s4.639 83.506 1.982 105.908c1.373-.421 2.148-1.764 2.148-1.764s3.775-78.891-2.746-102.184c-.343-2.783-1.384-1.96-1.384-1.96z" opacity=".3" fill="#d89c09" paint-order="fill markers stroke"/><path style="font-variation-settings:normal;mix-blend-mode:multiply;-inkscape-stroke:none" d="M-107.307 58.544s4.639 83.506 1.982 105.908c1.373-.42 2.148-1.764 2.148-1.764s3.775-78.891-2.746-102.183c-.343-2.783-1.384-1.96-1.384-1.96z" opacity=".3" fill="#d89c09" paint-order="fill markers stroke"/><path style="font-variation-settings:normal;mix-blend-mode:multiply;-inkscape-stroke:none" d="M-108.592 58.544s4.64 83.506 1.982 105.908c1.373-.42 2.148-1.764 2.148-1.764s3.776-78.891-2.746-102.183c-.343-2.783-1.384-1.96-1.384-1.96z" opacity=".3" fill="#d89c09" paint-order="fill markers stroke"/><path style="font-variation-settings:normal;mix-blend-mode:multiply;-inkscape-stroke:none" d="M-107.271 58.627s6.75 83.362 4.66 105.824c1.361-.456 2.102-1.818 2.102-1.818s1.78-78.961-5.329-102.081c-.413-2.774-1.433-1.925-1.433-1.925zM-113.464 59.723s-6.75 83.362-4.66 105.824c-1.362-.456-2.102-1.818-2.102-1.818s-1.78-78.961 5.328-102.081c.414-2.774 1.434-1.925 1.434-1.925z" opacity=".3" fill="#d89c09" paint-order="fill markers stroke"/><path style="font-variation-settings:normal;mix-blend-mode:multiply;-inkscape-stroke:none" d="M-113.896 60.353s-3.798 83.548-.915 105.922c-1.377-.407-2.165-1.742-2.165-1.742s-4.57-78.85 1.716-102.206c.315-2.786 1.364-1.974 1.364-1.974z" opacity=".3" fill="#d89c09" paint-order="fill markers stroke"/><path style="font-variation-settings:normal;mix-blend-mode:multiply;-inkscape-stroke:none" d="M-111.582 60.404s-3.798 83.548-.915 105.923c-1.377-.407-2.165-1.743-2.165-1.743s-4.57-78.849 1.716-102.206c.315-2.786 1.364-1.974 1.364-1.974zM-116.322 60.929s-7.537 83.294-5.66 105.775c-1.357-.469-2.085-1.838-2.085-1.838S-125.1 85.89-117.773 62.84c.44-2.77 1.451-1.911 1.451-1.911z" opacity=".3" fill="#d89c09" paint-order="fill markers stroke"/><path style="font-variation-settings:normal;mix-blend-mode:multiply;-inkscape-stroke:none" d="M-113.331 61.03s-4.606 83.508-1.94 105.909c-1.373-.42-2.148-1.764-2.148-1.764s-3.807-78.89 2.705-102.184c.342-2.783 1.383-1.96 1.383-1.96z" opacity=".3" fill="#d89c09" paint-order="fill markers stroke"/><path style="font-variation-settings:normal;-inkscape-stroke:none" d="M-132.202 5.907c14.223-11.754 24.405-8.945 40.586-3.443 1.419 9.951 6.825 67.283 6.825 67.283s-25.463-43.686-53.422-11.636c2.346-33.936 6.011-52.204 6.011-52.204z" transform="matrix(.9869 -.16128 .11276 .68997 -3.868 8.945)" opacity=".5" fill="url(#o)" paint-order="fill markers stroke" filter="url(#p)"/><path style="font-variation-settings:normal;mix-blend-mode:overlay;-inkscape-stroke:none" d="M-121.585 73.166c-3.355 7.388-7.319 31.281-8.338 48.82-1.018 17.54 4.252 23.942 11.227 14.517 6.976-9.426 3.81-49.965 4.141-57.816.332-7.851-3.952-12.292-7.03-5.521z" opacity=".75" fill="url(#q)" paint-order="fill markers stroke" filter="url(#r)"/><path style="font-variation-settings:normal;mix-blend-mode:overlay;-inkscape-stroke:none" d="M-117.563 24.157c-2.668 2.77-2.768 10.457-1.13 19.054 1.64 8.596 6.807 8.353 5.603 1.902-2.898-15.528 2.27-25.805-4.473-20.956z" opacity=".75" fill="url(#s)" paint-order="fill markers stroke" filter="url(#t)"/><path style="font-variation-settings:normal;mix-blend-mode:multiply;-inkscape-stroke:none" d="M-125.216 66.738s14.769-7.158 26.811 6.564c7.1 8.09 3.018 80.494 3.937 89.308 32.68-5.265 6.209-129.688 5.083-143.571-.412-5.085-11.146-4.261-11.146-4.261s-1.954 36.66-8.93 36.998c-6.975.337-17.859-5.393-17.859-5.393z" opacity=".75" fill="#63452c" paint-order="fill markers stroke" filter="url(#u)"/><path style="font-variation-settings:normal;mix-blend-mode:multiply;-inkscape-stroke:none" d="M-121.408 63.277s4.876-1.79 11.425-1.7c6.548.09 12.813 1.158 15.354 2.589.33-4.06-.392-11.327-.392-11.327s-17.181-3.21-26.075 1.835c-1.5 5.14-.312 8.603-.312 8.603z" fill="#865e3c" paint-order="fill markers stroke" filter="url(#v)"/></g><g clip-path="url(#w)" transform="matrix(.6301 .61644 -.61655 .62986 193.363 74.55)" stroke-width="2.269"><path style="font-variation-settings:normal;-inkscape-stroke:none" d="M-120.517 62.14c6.918-1.634 18.163-2.167 24.586.041 1.557-4.853-.395-7.638-.395-7.638s-12.95-4.318-23.799.452c-2.041 3.483-.392 7.145-.392 7.145z" fill="#1c71d8" stroke-linejoin="round" paint-order="fill markers stroke" id="f" stroke-width="2.269"/><path style="font-variation-settings:normal;mix-blend-mode:multiply;-inkscape-stroke:none" d="M-121.855 58.816s1.199 1.55 4.227.963c3.028-.587 8.343-1.491 15.055-.726 6.712.765 7.083 1.114 7.853-.127.661 1.842-.025 4.748-.025 4.748l-28.336.079z" fill="#1a5fb4" paint-order="fill markers stroke" filter="url(#x)"/><path style="font-variation-settings:normal;mix-blend-mode:overlay;-inkscape-stroke:none" d="M-112.751 53.855c-3.233.424-6.3 1.425-6.856 2.334-.557.908.26 2.285 2.544 1.55 2.283-.736 8.854-2.09 12.173-2.303 3.319-.213-1.284-2.327-7.861-1.581z" fill="url(#y)" paint-order="fill markers stroke" filter="url(#z)"/></g></g></svg>